#!OML:ASF H:\Terrain\Patient Classification 1\Takeo\Monday\TakeoMonday.ASF
:FULLY-SPECIFIED
:DEGREES
2150
root 10.5312 17.7363 -0.209728 -9.27963 -13.133 0.135694
lowerback 1.84967 0.196712 -0.0686752
upperback -0.790492 0.263076 0.150092
thorax -1.84747 0.133074 0.183257
lowerneck -15.6602 7.84766 5.92602
upperneck -2.22705 9.09837 4.9446
head 1.97525 4.63601 1.17733
rclavicle -1.17283e-014 -1.74931e-014
rhumerus 47.3514 28.2457 -49.1388
rradius 126.189
rwrist -83.3232
rhand -31.9812 7.05897
rfingers 7.12502
rthumb -5.23062 -22.8565
lclavicle -1.17283e-014 -1.74931e-014
lhumerus -40.1341 11.0524 84.4887
lradius 34.1024
lwrist 38.6692
lhand -22.8947 27.7885
lfingers 7.12502
lthumb 3.54479 57.7388
rfemur 7.84446 5.11697 18.0178
rtibia 16.4214
rfoot -12.1283 -14.0511
rtoes -2.94117
lfemur 9.02474 1.83056 -22.6953
ltibia 17.9196
lfoot -17.3129 21.1488
ltoes 3.24293
2151
root 10.5343 17.747 -0.209185 -9.15298 -13.2179 -0.0373597
lowerback 2.04186 0.165234 -0.0961341
upperback -0.98102 0.225226 0.388816
thorax -2.15193 0.11655 0.443744
lowerneck -14.9505 7.93891 6.09988
upperneck -2.60198 9.29407 4.19701
head 1.76709 4.68849 0.879295
rclavicle -1.88845e-015 1.5207e-014
rhumerus 46.621 28.4819 -49.6902
rradius 126.779
rwrist -82.2831
rhand -31.9814 7.58057
rfingers 7.12502
rthumb -5.23081 -22.3349
lclavicle -1.88845e-015 1.5207e-014
lhumerus -40.5115 11.3867 84.5122
lradius 34.2678
lwrist 38.6738
lhand -22.8844 28.8943
lfingers 7.12502
lthumb 3.55478 58.8444
rfemur 7.65964 5.19407 18.2092
rtibia 16.5281
rfoot -12.1233 -14.1009
rtoes -2.97566
lfemur 8.95522 1.78382 -22.519
ltibia 17.8312
lfoot -17.3936 21.1718
ltoes 3.95127
2152
root 10.5364 17.758 -0.203374 -9.05345 -13.106 0.00192292
lowerback 2.07249 0.149738 -0.135711
upperback -1.08999 0.204494 0.428509
thorax -2.28119 0.107395 0.50725
lowerneck -14.8019 8.05956 6.05909
upperneck -2.79504 9.48837 3.93599
head 1.68741 4.76966 0.803081
rclavicle -2.93207e-015 1.88845e-014
rhumerus 46.0154 28.4364 -50.418
rradius 126.702
rwrist -81.969
rhand -31.4206 8.91007
rfingers 7.12502
rthumb -4.68924 -21.018
lclavicle -2.93207e-015 1.88845e-014
lhumerus -40.6909 11.4215 84.5066
lradius 34.3008
lwrist 38.7342
lhand -22.3522 29.4619
lfingers 7.12502
lthumb 4.06863 59.4028
rfemur 7.50728 5.15611 18.1295
rtibia 16.6035
rfoot -12.234 -14.1334
rtoes -3.57518
lfemur 8.84225 1.70233 -22.5768
ltibia 17.8333
lfoot -17.4349 21.0682
ltoes 4.13248
2153
root 10.5358 17.7446 -0.199596 -9.12133 -12.8324 0.252064
lowerback 1.99161 0.146451 -0.216823
upperback -1.05579 0.194624 0.283558
thorax -2.20023 0.1024 0.404703
lowerneck -14.5811 8.24856 6.20642
upperneck -3.25104 9.76212 3.49167
head 1.52672 4.87544 0.633496
rclavicle -5.15101e-014 1.44119e-014
rhumerus 45.1599 28.0444 -51.2994
rradius 126.835
rwrist -82.2967
rhand -31.7193 8.76246
rfingers 7.12502
rthumb -4.97765 -21.1591
lclavicle -5.15101e-014 1.44119e-014
lhumerus -40.6995 11.2133 84.4515
lradius 34.2749
lwrist 38.8682
lhand -21.8753 28.5139
lfingers 7.12502
lthumb 4.52922 58.4454
rfemur 7.62546 4.99321 17.8223
rtibia 16.5547
rfoot -12.3775 -14.1365
rtoes -3.90641
lfemur 8.81857 1.75458 -22.8521
ltibia 17.8935
lfoot -17.1111 20.9913
ltoes 2.61662
2154
root 10.535 17.7307 -0.205363 -9.2427 -12.6291 0.554482
lowerback 2.07222 0.147615 -0.458495
upperback -1.02279 0.186664 0.17793
thorax -2.21204 0.10115 0.432028
lowerneck -14.4757 8.52324 6.28027
upperneck -3.66373 10.142 3.21817
head 1.39079 5.04203 0.542762
rclavicle -1.82385e-014 -5.06901e-015
rhumerus 44.156 27.8604 -52.041
rradius 127.516
rwrist -82.0314
rhand -31.7491 9.19406
rfingers 7.12502
rthumb -5.00647 -20.7268
lclavicle -1.82385e-014 -5.06901e-015
lhumerus -40.7853 11.2182 84.3764
lradius 34.42
lwrist 38.8948
lhand -22.471 25.9745
lfingers 7.12502
lthumb 3.95396 55.9176
rfemur 7.76653 4.86275 17.4914
rtibia 16.5352
rfoot -12.3664 -14.1549
rtoes -3.57657
lfemur 8.82259 1.86908 -23.1456
ltibia 17.9011
lfoot -16.8153 20.878
ltoes 1.29627
2155
root 10.5376 17.7368 -0.205128 -9.27614 -12.6775 0.500926
lowerback 2.16648 0.20708 -0.341591
upperback -1.00336 0.270795 0.252354
thorax -2.24581 0.142027 0.439173
lowerneck -15.1465 8.7717 5.5994
upperneck -3.33239 10.4951 3.83099
head 1.54877 5.25536 0.905662
rclavicle 5.64051e-015 2.28602e-015
rhumerus 43.306 27.6853 -52.68
rradius 128.139
rwrist -81.2523
rhand -32.2872 8.90513
rfingers 7.12502
rthumb -5.52599 -21.0028
lclavicle 5.64051e-015 2.28602e-015
lhumerus -40.8245 11.4571 84.3707
lradius 34.4247
lwrist 38.6569
lhand -22.5946 27.4895
lfingers 7.12502
lthumb 3.83459 57.4348
rfemur 7.74391 4.93012 17.5648
rtibia 16.6769
rfoot -12.3659 -14.2193
rtoes -3.28236
lfemur 8.87115 1.72901 -23.1034
ltibia 17.864
lfoot -17.0126 20.8738
ltoes 1.91303
2156
root 10.5396 17.7414 -0.195969 -9.26791 -12.7734 0.44331
lowerback 2.11092 0.275563 -0.191113
upperback -0.940885 0.368213 0.323897
thorax -2.15093 0.188745 0.424642
lowerneck -15.6574 8.97842 5.14013
upperneck -3.15323 10.7886 4.0553
head 1.66022 5.42085 1.09982
rclavicle 7.03201e-015 1.83876e-014
rhumerus 42.6347 27.301 -53.3294
rradius 128.576
rwrist -80.5955
rhand -33.2087 7.96761
rfingers 7.12502
rthumb -6.4157 -21.9152
lclavicle 7.03201e-015 1.83876e-014
lhumerus -40.6676 11.8427 84.3283
lradius 34.1733
lwrist 38.2146
lhand -22.4481 27.1752
lfingers 7.12502
lthumb 3.97606 57.1179
rfemur 7.68212 5.03417 17.6288
rtibia 16.8123
rfoot -12.4533 -14.2708
rtoes -3.51755
lfemur 8.93226 1.57348 -23.0961
ltibia 17.8355
lfoot -17.2575 20.992
ltoes 3.10221
2157
root 10.5394 17.7355 -0.195264 -9.2039 -12.6582 0.557444
lowerback 2.05152 0.281897 -0.286148
upperback -0.909712 0.373737 0.316993
thorax -2.08617 0.192616 0.471
lowerneck -15.4348 9.18936 5.43223
upperneck -3.61483 11.0653 3.34362
head 1.52313 5.51962 0.82151
rclavicle 4.27387e-015 6.16232e-015
rhumerus 41.9122 26.7191 -53.9641
rradius 129.079
rwrist -79.9689
rhand -33.4877 7.67751
rfingers 7.12502
rthumb -6.68507 -22.197
lclavicle 4.27387e-015 6.16232e-015
lhumerus -40.5361 12.0616 84.2965
lradius 33.9985
lwrist 38.0156
lhand -22.2532 26.9469
lfingers 7.12502
lthumb 4.1643 56.8859
rfemur 7.58986 5.02018 17.4917
rtibia 16.8418
rfoot -12.5883 -14.2456
rtoes -4.15731
lfemur 8.85111 1.64515 -23.2316
ltibia 17.8077
lfoot -16.9857 21.0548
ltoes 2.4421
2158
root 10.5412 17.7325 -0.200762 -9.15013 -12.4944 0.490017
lowerback 2.12147 0.33597 -0.135215
upperback -0.885903 0.45142 0.377803
thorax -2.10116 0.229747 0.445407
lowerneck -14.9754 9.29107 5.54459
upperneck -4.43374 11.2593 2.56597
head 1.22341 5.56938 0.523689
rclavicle 1.95306e-014 -1.0138e-014
rhumerus 41.1616 25.9425 -54.4629
rradius 129.508
rwrist -79.5944
rhand -33.2138 8.32894
rfingers 7.12502
rthumb -6.42057 -21.5537
lclavicle 1.95306e-014 -1.0138e-014
lhumerus -40.4953 11.7267 84.5754
lradius 33.9881
lwrist 38.2611
lhand -22.0084 27.4275
lfingers 7.12502
lthumb 4.40069 57.3618
rfemur 7.48526 4.95711 17.5589
rtibia 16.9488
rfoot -12.6595 -14.2539
rtoes -4.77957
lfemur 8.80126 1.67938 -23.152
ltibia 17.7323
lfoot -16.6683 21.0506
ltoes 1.34624
2159
root 10.5424 17.7324 -0.199914 -9.17501 -12.4224 0.410139
lowerback 2.24571 0.393161 0.0494488
upperback -0.926205 0.53561 0.471671
thorax -2.21234 0.269984 0.43378
lowerneck -14.5302 9.38223 5.21804
upperneck -5.02037 11.4905 2.25664
head 0.954527 5.66495 0.449751
rclavicle 2.49972e-014 -1.88845e-014
rhumerus 40.3693 25.4978 -55.037
rradius 129.924
rwrist -79.2165
rhand -33.0799 9.213
rfingers 7.12502
rthumb -6.29133 -20.6736
lclavicle 2.49972e-014 -1.88845e-014
lhumerus -40.6878 11.2748 84.876
lradius 34.0328
lwrist 38.6802
lhand -22.0738 27.7775
lfingers 7.12502
lthumb 4.33753 57.7131
rfemur 7.44704 4.83473 17.6335
rtibia 17.1427
rfoot -12.5953 -14.3382
rtoes -5.0726
lfemur 8.91049 1.70991 -23.0481
ltibia 17.6007
lfoot -16.6394 20.952
ltoes 1.37124
